<svg width="32" height="32" viewBox="0 0 32 32" fill="none" xmlns="http://www.w3.org/2000/svg">
<path d="M15 22.5L25 22.5" stroke="#626262" stroke-width="1.4" stroke-linecap="square" stroke-linejoin="round"/>
<path d="M7 22.5H10" stroke="#626262" stroke-width="1.4" stroke-linecap="square" stroke-linejoin="round"/>
<path d="M12.5 25C13.8807 25 15 23.8807 15 22.5C15 21.1193 13.8807 20 12.5 20C11.1193 20 10 21.1193 10 22.5C10 23.8807 11.1193 25 12.5 25Z" stroke="#626262" stroke-width="1.4" stroke-linecap="round" stroke-linejoin="round"/>
<path d="M23 15.5H25" stroke="#626262" stroke-width="1.4" stroke-linecap="square" stroke-linejoin="round"/>
<path d="M7 15.5H18" stroke="#626262" stroke-width="1.4" stroke-linecap="square" stroke-linejoin="round"/>
<path d="M20.5 18C21.8807 18 23 16.8807 23 15.5C23 14.1193 21.8807 13 20.5 13C19.1193 13 18 14.1193 18 15.5C18 16.8807 19.1193 18 20.5 18Z" stroke="#626262" stroke-width="1.4" stroke-linecap="round" stroke-linejoin="round"/>
<path d="M17 8.5H25" stroke="#626262" stroke-width="1.4" stroke-linecap="square" stroke-linejoin="round"/>
<path d="M7 8.5H12" stroke="#626262" stroke-width="1.4" stroke-linecap="square" stroke-linejoin="round"/>
<path d="M14.5 11C15.8807 11 17 9.88071 17 8.5C17 7.11929 15.8807 6 14.5 6C13.1193 6 12 7.11929 12 8.5C12 9.88071 13.1193 11 14.5 11Z" stroke="#626262" stroke-width="1.4" stroke-linecap="round" stroke-linejoin="round"/>
</svg>
