<svg width="14" height="12" viewBox="0 0 14 12" fill="none" xmlns="http://www.w3.org/2000/svg">
<path d="M6.96286 2L6.97355 1.5H6.96286V2ZM6.96286 4.92929L6.95216 4.42941L6.46286 4.43988V4.92929H6.96286ZM1.2002 9.73333L0.940684 9.30595L1.2002 10.2333V9.73333ZM12.8002 9.73333V10.2333L13.0573 9.30448L12.8002 9.73333ZM6.09376 3.46465C6.09376 3.17935 6.15939 2.99889 6.23203 2.88234C6.30563 2.76424 6.40478 2.68246 6.51414 2.62397C6.6261 2.56408 6.74351 2.53174 6.8367 2.51512C6.88219 2.50701 6.9189 2.50318 6.94212 2.50141C6.95365 2.50053 6.96158 2.50017 6.9653 2.50004C6.96715 2.49997 6.96793 2.49996 6.96756 2.49997C6.96737 2.49997 6.96689 2.49998 6.96611 2.49999C6.96572 2.49999 6.96525 2.49999 6.96471 2.5C6.96444 2.5 6.96415 2.5 6.96384 2.5C6.96369 2.5 6.96344 2.5 6.96336 2.5C6.96311 2.5 6.96286 2.5 6.96286 2C6.96286 1.5 6.96259 1.5 6.96232 1.5C6.96222 1.5 6.96194 1.5 6.96175 1.5C6.96135 1.5 6.96094 1.5 6.9605 1.50001C6.95963 1.50001 6.95867 1.50001 6.95762 1.50002C6.95552 1.50004 6.95308 1.50007 6.9503 1.50012C6.94475 1.50021 6.93784 1.50038 6.92966 1.50068C6.91333 1.50126 6.89184 1.50233 6.86593 1.50431C6.81428 1.50826 6.74403 1.51587 6.66117 1.53065C6.49765 1.5598 6.27279 1.619 6.04248 1.74219C5.80956 1.86678 5.56644 2.05963 5.38333 2.35346C5.19926 2.64883 5.09376 3.01762 5.09376 3.46465H6.09376ZM6.96286 2C6.95216 2.49989 6.95191 2.49988 6.95166 2.49987C6.95159 2.49987 6.95135 2.49987 6.9512 2.49986C6.95089 2.49986 6.95061 2.49985 6.95035 2.49984C6.94982 2.49983 6.94937 2.49982 6.949 2.49981C6.94825 2.49978 6.9478 2.49977 6.94765 2.49976C6.94733 2.49975 6.94818 2.49978 6.95011 2.49989C6.95397 2.50011 6.96206 2.50063 6.97377 2.50176C6.99734 2.50403 7.03451 2.50863 7.08055 2.51766C7.17476 2.53614 7.29397 2.57081 7.40793 2.63299C7.51967 2.69395 7.62033 2.77777 7.69448 2.89597C7.7673 3.01205 7.83196 3.18873 7.83196 3.46465H8.83196C8.83196 3.02289 8.72547 2.65765 8.54158 2.36454C8.35903 2.07356 8.11742 1.88092 7.88688 1.75514C7.65857 1.63058 7.4355 1.56822 7.27301 1.53635C7.19069 1.52021 7.1209 1.5113 7.0696 1.50636C7.04387 1.50389 7.02255 1.50238 7.00636 1.50147C6.99826 1.50101 6.99141 1.5007 6.98592 1.50049C6.98318 1.50039 6.98077 1.50031 6.9787 1.50025C6.97767 1.50022 6.97672 1.50019 6.97586 1.50017C6.97543 1.50016 6.97503 1.50015 6.97464 1.50014C6.97445 1.50013 6.97418 1.50013 6.97408 1.50013C6.97381 1.50012 6.97355 1.50011 6.96286 2ZM7.83196 3.46465C7.83196 3.74057 7.7673 3.91724 7.69448 4.03332C7.62033 4.15153 7.51967 4.23534 7.40793 4.2963C7.29397 4.35848 7.17476 4.39316 7.08055 4.41164C7.03451 4.42067 6.99734 4.42526 6.97377 4.42753C6.96206 4.42866 6.95397 4.42919 6.95011 4.42941C6.94818 4.42951 6.94734 4.42954 6.94765 4.42953C6.9478 4.42953 6.94825 4.42951 6.949 4.42949C6.94937 4.42948 6.94982 4.42946 6.95035 4.42945C6.95061 4.42944 6.95089 4.42944 6.9512 4.42943C6.95135 4.42943 6.95159 4.42942 6.95166 4.42942C6.95191 4.42941 6.95216 4.42941 6.96286 4.92929C6.97355 5.42918 6.97381 5.42917 6.97408 5.42917C6.97418 5.42916 6.97445 5.42916 6.97464 5.42915C6.97503 5.42914 6.97543 5.42914 6.97586 5.42912C6.97672 5.4291 6.97767 5.42908 6.9787 5.42905C6.98076 5.42898 6.98318 5.4289 6.98592 5.4288C6.99141 5.42859 6.99826 5.42828 7.00636 5.42782C7.02255 5.42691 7.04387 5.42541 7.0696 5.42293C7.1209 5.41799 7.19069 5.40908 7.27301 5.39294C7.4355 5.36107 7.65857 5.29871 7.88688 5.17415C8.11742 5.04837 8.35903 4.85573 8.54158 4.56475C8.72547 4.27164 8.83196 3.9064 8.83196 3.46465H7.83196ZM6.46286 4.92929V6.23416H7.46286V4.92929H6.46286ZM6.70334 5.80678L0.940684 9.30595L1.45971 10.1607L7.22237 6.66154L6.70334 5.80678ZM1.2002 10.2333H12.8002V9.23333H1.2002V10.2333ZM13.0573 9.30448L7.21993 5.80531L6.70578 6.66301L12.5431 10.1622L13.0573 9.30448Z" fill="#9E9E9E"/>
</svg>
