<svg width="20" height="20" viewBox="0 0 20 20" fill="none" xmlns="http://www.w3.org/2000/svg">
<g clip-path="url(#clip0_402_16935)">
<path d="M9.98329 19.2461C9.91646 19.2461 9.81621 19.2461 9.74937 19.2127C9.58229 19.1793 9.44862 19.079 9.31495 18.9788L1.82957 11.3263C-0.609858 8.82004 -0.609858 4.81001 1.82957 2.33716C2.83208 1.33466 4.0685 0.799988 5.40518 0.799988H5.4386C6.94236 0.799988 8.57978 1.50174 10.0167 2.73817C11.4202 1.50174 13.0576 0.799988 14.5614 0.799988H14.5948C15.9315 0.799988 17.1679 1.33466 18.1704 2.33716C20.6099 4.7766 20.6099 8.82004 18.1704 11.3263L10.6516 18.9788C10.4845 19.1793 10.2506 19.2461 9.98329 19.2461Z" fill="#FF5D5D"/>
</g>
<defs>
<clipPath id="clip0_402_16935">
<rect width="20" height="20" fill="white"/>
</clipPath>
</defs>
</svg>
