<svg width="24" height="24" viewBox="0 0 24 24" fill="none" xmlns="http://www.w3.org/2000/svg">
<rect width="24" height="24" fill="white"/>
<g clip-path="url(#clip0_2266_459)">
<path d="M9.14357 10.8742H5.73122C5.31686 10.8742 5 10.5573 5 10.143V6.73061C5 6.31625 5.31686 5.99939 5.73122 5.99939C6.14558 5.99939 6.46244 6.31625 6.46244 6.73061V9.41174H9.14357C9.55793 9.41174 9.87479 9.72861 9.87479 10.143C9.87479 10.5573 9.55793 10.8742 9.14357 10.8742Z" fill="#B1B1B1"/>
<path d="M12.3121 19.5756C8.63166 19.5756 5.53617 16.8214 5.07306 13.1896C5.02432 12.7997 5.3168 12.4341 5.70679 12.3853C6.09677 12.3366 6.46238 12.629 6.51113 13.019C6.87674 15.9195 9.36288 18.1132 12.3121 18.1132C15.5295 18.1132 18.1375 15.5052 18.1375 12.2878C18.1375 9.07045 15.5295 6.46244 12.3121 6.46244C9.97223 6.46244 7.8517 7.85175 6.94986 10.021C6.80362 10.3866 6.36488 10.5573 5.99927 10.411C5.63367 10.2648 5.46305 9.82604 5.60929 9.46043C6.73049 6.75492 9.38725 5 12.3121 5C16.3338 5 19.5999 8.26611 19.5999 12.2878C19.5999 16.3095 16.3338 19.5756 12.3121 19.5756Z" fill="#B1B1B1"/>
</g>
<defs>
<clipPath id="clip0_2266_459">
<rect width="14.6" height="14.5756" fill="white" transform="translate(5 5)"/>
</clipPath>
</defs>
</svg>
